<svg width="60" height="60" viewBox="0 0 60 60" fill="none" xmlns="http://www.w3.org/2000/svg">
<path d="M38.1966 44.8043C41.4605 42.0256 43.5804 37.7059 43.7099 32.1622C43.856 26.0616 39.1614 19.3078 35.0016 13.1411C34.7452 12.7331 34.5605 12.4878 34.5605 12.4878C34.5605 12.4878 31.5033 17.9184 28.1981 22.5855C24.8928 27.2525 23.5117 35.1173 29.3421 38.3427C29.3421 38.3427 26.1967 35.087 30.2077 29.3669C31.3462 27.746 33.1132 25.4414 34.5109 23.225C36.4268 26.4503 37.863 29.5654 37.8051 32.0216C37.6507 38.4832 33.7831 42.5686 27.9555 42.4281C22.1279 42.2875 18.4615 38.0174 18.6159 31.5612C18.6903 28.4158 21.2761 24.2919 24.1733 20.2588C24.3966 19.928 24.7247 19.4622 25.2126 18.8364L25.5517 18.3815C29.3035 13.1962 29.3559 8.49609 28.9617 5.90205C33.493 6.07204 37.8438 7.72229 41.3479 10.6002C44.8521 13.4781 47.3167 17.4251 48.3643 21.8369C49.4119 26.2487 48.9848 30.8823 47.1485 35.0283C45.3122 39.1743 42.1677 42.6043 38.1966 44.7933V44.8043ZM7.4458 26.6378C7.44565 21.2704 9.5262 16.112 13.2502 12.2466C16.9741 8.38128 22.0515 6.11006 27.4152 5.91032C23.2526 13.3754 12.9178 22.6048 12.7055 31.4261C12.565 37.2979 14.7179 41.9015 18.1803 44.8209C14.9263 43.0295 12.2133 40.3969 10.3249 37.1982C8.43653 33.9995 7.44218 30.3523 7.4458 26.6378ZM29.5626 1.286e-07C23.7161 -0.000545102 18.0008 1.73265 13.1393 4.9804C8.27785 8.22815 4.48866 12.8446 2.25092 18.2459C0.0131764 23.6472 -0.572601 29.5908 0.567662 35.325C1.70792 41.0593 4.52301 46.3266 8.65693 50.4609C12.7908 54.5952 18.0579 57.4108 23.792 58.5516C29.5262 59.6924 35.4698 59.1071 40.8713 56.8699C46.2728 54.6327 50.8896 50.8439 54.1378 45.9827C57.386 41.1216 59.1198 35.4064 59.1198 29.5599C59.1198 21.7206 56.0058 14.2023 50.4628 8.65886C44.9199 3.11539 37.4019 0.000731201 29.5626 1.286e-07Z" fill="url(#paint0_radial)"/>
<defs>
<radialGradient id="paint0_radial" cx="0" cy="0" r="1" gradientUnits="userSpaceOnUse" gradientTransform="translate(30.1797 27.8746) scale(22.2832 22.4876)">
<stop stop-color="#F37135"/>
<stop offset="0.04" stop-color="#F37135"/>
<stop offset="0.83" stop-color="#F04E2E"/>
<stop offset="1" stop-color="#F04E2E"/>
</radialGradient>
</defs>
</svg>
